<?xml version="1.0" encoding="iso-8859-1"?>
<!-- Uploaded to: SVG Repo, www.svgrepo.com, Generator: SVG Repo Mixer Tools -->
<svg fill="#000000" height="800px" width="800px" version="1.1" id="Layer_1" xmlns="http://www.w3.org/2000/svg" xmlns:xlink="http://www.w3.org/1999/xlink" 
	 viewBox="0 0 330 330" xml:space="preserve">
<g id="XMLID_467_">
	<path id="XMLID_468_" d="M 295 200 h -5 v -25 c 0 -30.327 -24.673 -55 -55 -55 s -55 25 -55 55 v 25 h 30 v -25 c 0 -13.785 11.215 -25 25 -25 s 25 11.215 25 25 v 25 h -65 C 178.366 169.284 147.667 155.5 115 155.5 c -63.411 0 -115 51.589 -115 115 c 0 8.284 6.716 15 15 15 h 145 v 29.5 c 0 8.284 6.716 15 15 15 h 120 c 8.284 0 15 -6.716 15 -15 V 215 c 0 -8.284 -6.716 -15 -15 -15 z M 31.325 255.5 C 38.43 215.761 73.249 185.5 115 185.5 C 130 185.5 150 190 163.035 205.075 C 161.936 206.358 159.996 208.344 160 215 V 255.5 h -128.675 z M 280 300 h -90 v -70 h 5 h 80 h 5 v 70 z"/>
	<path id="XMLID_474_" d="M115,125.5c34.601,0,62.75-28.149,62.75-62.75S149.601,0,115,0S52.25,28.149,52.25,62.75
		S80.399,125.5,115,125.5z M115,30c18.059,0,32.75,14.691,32.75,32.75S133.059,95.5,115,95.5S82.25,80.809,82.25,62.75
		S96.941,30,115,30z"/>
</g>
</svg>