<?xml version="1.0" encoding="iso-8859-1"?>
<!-- Uploaded to: SVG Repo, www.svgrepo.com, Generator: SVG Repo Mixer Tools -->
<svg fill="#000000" height="800px" width="800px" version="1.1" id="Layer_1" xmlns="http://www.w3.org/2000/svg" xmlns:xlink="http://www.w3.org/1999/xlink" 
	 viewBox="0 0 370 370" xml:space="preserve">
<g id="XMLID_467_">
	<path id="XMLID_468_" d="M 295 220 h -5 v -25 c 0 -13.785 11.215 -25 25 -25 c 13.785 0 25 11.215 25 25 v 25 h 30 v -25 c 0 -30.327 -24.673 -55 -55 -55 s -55 25 -55 55 v 25 h -50 C 198.366 189.284 167.667 175.5 135 175.5 c -63.411 0 -115 51.589 -115 115 c 0 8.284 6.716 15 15 15 h 125 v 29.5 c 0 8.284 6.716 15 15 15 h 120 c 8.284 0 15 -6.716 15 -15 V 235 c 0 -8.284 -6.716 -15 -15 -15 z M 51.325 275.5 c 7.105 -39.739 41.924 -70 83.675 -70 c 15 0 28.925 3.909 40 14.5 c -8.284 0 -15 6.716 -15 15 V 275.5 H 51.325 z M 280 320 h -90 v -70 h 5 h 80 h 5 v 70 z"/>
	<path id="XMLID_474_" d="M 135 145.5 c 34.601 0 62.75 -28.149 62.75 -62.75 S 169.601 20 135 20 S 72.25 48.149 72.25 82.75 S 100.399 145.5 135 145.5 z M 135 50 c 18.059 0 32.75 14.691 32.75 32.75 S 153.059 115.5 135 115.5 S 102.25 100.809 102.25 82.75 S 116.941 50 135 50 z"/>
</g>
</svg>